PathFileType	4	(X/Y/Z)	pose_F01_0-96.trc
DataRate	CameraRate	NumFrames	NumMarkers	Units	OrigDataRate	OrigDataStartFrame	OrigNumFrames
30	30	9	21	m	30	48	96
Frame#	Time	CHip			RHip			RKnee			RAnkle			RBigToe			RSmallToe			RHeel			LHip			LKnee			LAnkle			LBigToe			LSmallToe			LHeel			Neck			Nose			RShoulder			RElbow			RWrist			LShoulder			LElbow			LWrist			
		X1	Y1	Z1	X2	Y2	Z2	X3	Y3	Z3	X4	Y4	Z4	X5	Y5	Z5	X6	Y6	Z6	X7	Y7	Z7	X8	Y8	Z8	X9	Y9	Z9	X10	Y10	Z10	X11	Y11	Z11	X12	Y12	Z12	X13	Y13	Z13	X14	Y14	Z14	X15	Y15	Z15	X16	Y16	Z16	X17	Y17	Z17	X18	Y18	Z18	X19	Y19	Z19	X20	Y20	Z20	X21	Y21	Z21	
48	1.6	-0.30930768453455343	1.8355622120168977	-0.655857821899428	-0.3231296992683739	1.8345088934056109	-0.591340328476114																-0.29545318696178696	1.8377953463976573	-0.7149355544337929	-0.23998704912081822	1.7156603711644514	-0.6329183447232822													-0.31338579523763105	1.9972609235597087	-0.7013603093240985	-0.30075963008099116	2.05040270831953	-0.6642743574197765	-0.33960365554812	1.9957268515654247	-0.6146899979399485	-0.33755050139866927	1.9196669266017166	-0.5396471084094393	-0.36312893577910454	1.868627835061103	-0.5883105709554577	-0.2836112126385127	1.9966793508921614	-0.7845535263355027	-1.105906384280972	1.8308171280582717	0.09409871387389622	-0.24451717138765697	1.8733641848971494	-0.6743613447832854
49	1.6333333333333333	-0.3092164351824042	1.8380861434174827	-0.6561607701371609	-0.32311239654830287	1.8341671046051307	-0.591323520149716																-0.2932627942220009	1.8402589398479272	-0.7172880616943564	-0.23998704912081822	1.7156603711644514	-0.6329183447232822													-0.312440497852886	1.9958794587116442	-0.6980985874848601	-0.3008051098336713	2.0502995813630256	-0.6643050852567686	-0.3383703112613966	1.9943836359450158	-0.6108477418257383	-0.33744721904253994	1.918177300454604	-0.5393267736446701	-0.3619541911737491	1.8685067797728532	-0.58526037722148	-0.283763649920988	1.9987650824054375	-0.7850967820685062	-0.2694810951819097	1.926811892006256	-0.7683596908212014	-0.2507059796514593	1.8747194428730607	-0.6953229523543605
50	1.6666666666666667	-0.3093687554631996	1.8379992032740031	-0.6477781007779908	-0.3242013162152	1.835193743299203	-0.5862131529397281																-0.2946246881729361	1.839169240679123	-0.711821268495573	-0.23998704912081822	1.7156603711644514	-0.6329183447232822													-0.31353057451197497	1.996123658694254	-0.6928112866066588	-0.300791568292922	2.0504347607413522	-0.6642630430416354	-0.3363528579197544	1.9942990576924626	-0.6047334739153768	-0.3363113397587643	1.9172950648952396	-0.535717736485507	-1.2209639452272922	1.824028999386348	0.2769932738944769	-0.2849560657282466	1.9976412388253384	-0.77968094717786	-1.101869342566032	1.8267560279629127	0.08899928031362717	-0.2442452254341665	1.8740732150000932	-0.6731780323770121
51	1.7	-0.30924448612786326	1.8368117831984794	-0.6475435240853594	-0.3238832969818364	1.8350972549830527	-0.5862142921160646																-0.29463472511668365	1.8389160324419163	-0.7117657861914352	-0.23998704912081822	1.7156603711644514	-0.6329183447232822													-0.31256243406010326	1.9960137447833688	-0.6897359215485177	-0.2999647360447148	2.0506254082949664	-0.6617858479376324	-0.3352935216464715	1.9938954768518073	-0.6016473755221281	-0.33514797180090444	1.918258598105214	-0.5326691480518974	-1.2305310181375868	1.8236696183616232	0.29219972613863837	-0.28394677095279425	1.9988764692017458	-0.7766037049916497	-1.1231670209111346	1.8296241382095382	0.12188372183361464	-1.317488919495855	1.852586918792766	0.43681296772128547
52	1.7333333333333334	-0.30954809806229144	1.8361123474899077	-0.6474250366517718	-0.32310904014423825	1.8336168088417748	-0.5829460754810725																-0.2946447620604313	1.8386628242047096	-0.7117103038872973	-0.23998704912081822	1.7156603711644514	-0.6329183447232822													-0.3107849005213543	1.9953464077912282	-0.683659533002592	-0.2999449258028977	2.0508096822821864	-0.6617498785739968	-0.33530503680940477	1.9934503675541533	-0.59331707010824	-0.3340977012002733	1.919507066376706	-0.5297750634865876	-0.3587778754469855	1.8712974053767173	-0.5679761626895025	-0.2833763971398722	1.9990749047476635	-0.7742687710402124	-1.0990588939604586	1.8310720147316024	0.0785405536464177	-0.2424764920180082	1.8684734491480877	-0.6670702052788752
53	1.7666666666666666	-0.308121940387206	1.839035087850996	-0.6446702948459899	-0.3225054872500904	1.835046184068632	-0.5813079549837099																-0.29338112209058326	1.8398753917735615	-0.7062313857868973	-0.23998704912081822	1.7156603711644514	-0.6329183447232822													-0.3099036975338508	1.995928363338959	-0.6809580834041934	-0.29904010784445795	2.0520228058118493	-0.6591035655547661	-0.33443343404273534	1.9917661076646858	-0.5903126615872665	-0.33306091170642077	1.9189966730217838	-0.5265335597088062	-0.3618249740030043	1.8701517982166902	-0.5769245543671294	-0.2825001191523909	1.9987842174346986	-0.7713079479361892	-0.26328124435166017	1.9277803640609548	-0.7277206016196079	-1.3408166815527778	1.8647370299185637	0.46616076789311156
54	1.8	-0.30677300608799596	1.8397209213399208	-0.6385792376222571	-0.3219019343559425	1.8364755592954893	-0.5796698344863472																-0.29211748212073524	1.8410879593424134	-0.7007524676864973	-0.23998704912081822	1.7156603711644514	-0.6329183447232822													-0.31022741740194404	1.9945588064090154	-0.6728063745799672	-0.29804701231848707	2.055241427942107	-0.6567734847659068	-0.3334299543872142	1.992133973685387	-0.5870490071626855	-0.3340568075459752	1.9162208701972405	-0.520915387494346	-0.35987760887329884	1.870225266038335	-0.570653403942643	-0.2807541553689544	1.9997920846494444	-0.7654649159510083	-0.26127356878832336	1.9272483230369621	-0.7296774315953573	-1.3288463301846272	1.8588798263332746	0.4439241226513988
55	1.8333333333333333	-0.305424071788786	1.8404067548288454	-0.6324881803985244	-0.3198691765301024	1.8362139634609331	-0.5733040600211421																-0.29085384215088717	1.8423005269112651	-0.6952735495860973	-0.23998704912081822	1.7156603711644514	-0.6329183447232822													-0.30914311279210904	1.9971500822726507	-0.6699037930855669	-0.29607235736317455	2.0540530382474183	-0.6502450379801391	-0.3323805761342112	1.993097605142775	-0.584271909840768	-0.3329995168528722	1.9160586886876196	-0.5177157085746157	-0.35970074344936875	1.8688820989988866	-0.5785910063880514	-0.27906186441704506	1.9995255691944143	-0.7593563446899438	-0.2633808808349011	1.929916866158239	-0.7277201787721707	-0.24362943064193004	1.8757568708101757	-0.6708511327031925
56	1.8666666666666667	-0.304075137489576	1.8410925883177702	-0.6263971231747916	-0.3178364187042622	1.8359523676263767	-0.566938285555937																-0.28959020218103915	1.843513094480117	-0.6897946314856973	-0.23998704912081822	1.7156603711644514	-0.6329183447232822													-0.3072144246953143	1.9972615973277146	-0.6636961006860361	-0.2952838464586343	2.0532841346516517	-0.6391691312365859	-0.3293198947960597	1.9917830875877387	-0.5746238822137791	-0.33081374521511253	1.914171101646494	-0.5109920776414266	-0.361563587421976	1.8706668155308943	-0.5767174568925391	-0.27945840522754894	2.0005409046768485	-0.7515910290043328	-0.26182110714959433	1.9283366860961257	-0.7217441930395978	-1.3561427844370109	1.857177612363276	0.4898032913261523
